<mxfile host="app.diagrams.net" agent="Mozilla/5.0 (Windows NT 10.0; Win64; x64) AppleWebKit/537.36 (KHTML, like Gecko) Chrome/131.0.0.0 Safari/537.36" version="24.9.1">
  <diagram name="Trang-1" id="r6X5DAcCBRe_k90b1tPN">
    <mxGraphModel dx="1588" dy="840" grid="0" gridSize="10" guides="1" tooltips="1" connect="1" arrows="1" fold="1" page="0" pageScale="1" pageWidth="850" pageHeight="1100" math="0" shadow="0">
      <root>
        <mxCell id="0" />
        <mxCell id="1" parent="0" />
        <mxCell id="BWuAlUSk9_fTtL6U6oeN-1" value="&lt;p style=&quot;margin: 4px 0px 0px; text-align: center; font-size: 15px;&quot;&gt;&lt;font style=&quot;font-size: 15px;&quot;&gt;&lt;i style=&quot;&quot;&gt;&amp;lt;&amp;lt;boundary&amp;gt;&amp;gt;&lt;/i&gt;&lt;br&gt;&lt;b style=&quot;&quot;&gt;QuanLyTheLoaiUI&lt;/b&gt;&lt;/font&gt;&lt;/p&gt;&lt;hr size=&quot;1&quot; style=&quot;border-style: solid; font-size: 15px;&quot;&gt;&lt;p style=&quot;margin: 0px 0px 0px 4px; font-size: 15px;&quot;&gt;&lt;font style=&quot;font-size: 15px;&quot;&gt;&lt;br&gt;&lt;/font&gt;&lt;/p&gt;&lt;hr size=&quot;1&quot; style=&quot;border-style: solid; font-size: 15px;&quot;&gt;&lt;p style=&quot;margin: 0px 0px 0px 4px; font-size: 15px;&quot;&gt;&lt;font style=&quot;font-size: 15px;&quot;&gt;+&lt;span style=&quot;text-align: center; text-wrap-mode: nowrap; background-color: rgb(255, 255, 255);&quot;&gt;click vao &quot;Quan ly the loai&quot;()&lt;/span&gt;&lt;/font&gt;&lt;/p&gt;&lt;p style=&quot;margin: 0px 0px 0px 4px; font-size: 15px;&quot;&gt;&lt;font style=&quot;font-size: 15px;&quot;&gt;&lt;span style=&quot;text-align: center; text-wrap-mode: nowrap; background-color: rgb(255, 255, 255);&quot;&gt;+hien thi danh sach the loai()&lt;/span&gt;&lt;/font&gt;&lt;/p&gt;&lt;p style=&quot;margin: 0px 0px 0px 4px; font-size: 15px;&quot;&gt;&lt;font style=&quot;font-size: 15px;&quot;&gt;&lt;span style=&quot;text-align: center; text-wrap-mode: nowrap; background-color: rgb(255, 255, 255);&quot;&gt;+nhap ten the loai()&lt;/span&gt;&lt;/font&gt;&lt;/p&gt;&lt;p style=&quot;margin: 0px 0px 0px 4px; font-size: 15px;&quot;&gt;&lt;font style=&quot;font-size: 15px;&quot;&gt;&lt;span style=&quot;text-align: center; text-wrap-mode: nowrap; background-color: rgb(255, 255, 255);&quot;&gt;+click &quot;Them&quot;&lt;/span&gt;&lt;/font&gt;&lt;/p&gt;" style="verticalAlign=top;align=left;overflow=fill;html=1;whiteSpace=wrap;" vertex="1" parent="1">
          <mxGeometry x="170" y="200" width="310" height="186" as="geometry" />
        </mxCell>
        <mxCell id="BWuAlUSk9_fTtL6U6oeN-2" value="&lt;p style=&quot;margin: 4px 0px 0px; text-align: center; font-size: 15px;&quot;&gt;&lt;font style=&quot;font-size: 15px;&quot;&gt;&lt;i style=&quot;&quot;&gt;&amp;lt;&amp;lt;control&amp;gt;&amp;gt;&lt;/i&gt;&lt;br&gt;&lt;b style=&quot;&quot;&gt;QuanLyTheLoaiController&lt;/b&gt;&lt;/font&gt;&lt;/p&gt;&lt;hr size=&quot;1&quot; style=&quot;border-style: solid; font-size: 15px;&quot;&gt;&lt;p style=&quot;margin: 0px 0px 0px 4px; font-size: 15px;&quot;&gt;&lt;font style=&quot;font-size: 15px;&quot;&gt;&lt;br&gt;&lt;/font&gt;&lt;/p&gt;&lt;hr size=&quot;1&quot; style=&quot;border-style: solid; font-size: 15px;&quot;&gt;&lt;p style=&quot;margin: 0px 0px 0px 4px; font-size: 15px;&quot;&gt;&lt;font style=&quot;font-size: 15px;&quot;&gt;+&lt;/font&gt;&lt;span style=&quot;background-color: rgb(255, 255, 255); text-align: center; text-wrap-mode: nowrap;&quot;&gt;get danh sach the loai()&lt;/span&gt;&lt;/p&gt;&lt;p style=&quot;margin: 0px 0px 0px 4px; font-size: 15px;&quot;&gt;&lt;span style=&quot;background-color: rgb(255, 255, 255); text-align: center; text-wrap-mode: nowrap;&quot;&gt;+them the loai()&lt;/span&gt;&lt;/p&gt;" style="verticalAlign=top;align=left;overflow=fill;html=1;whiteSpace=wrap;" vertex="1" parent="1">
          <mxGeometry x="619" y="218" width="310" height="150" as="geometry" />
        </mxCell>
        <mxCell id="BWuAlUSk9_fTtL6U6oeN-3" value="&lt;p style=&quot;margin: 4px 0px 0px; text-align: center; font-size: 15px;&quot;&gt;&lt;font style=&quot;font-size: 15px;&quot;&gt;&lt;i style=&quot;&quot;&gt;&amp;lt;&amp;lt;entity&amp;gt;&amp;gt;&lt;/i&gt;&lt;br&gt;&lt;b&gt;TheLoai&lt;/b&gt;&lt;/font&gt;&lt;/p&gt;&lt;hr size=&quot;1&quot; style=&quot;border-style: solid; font-size: 15px;&quot;&gt;&lt;p style=&quot;margin: 0px 0px 0px 4px; font-size: 15px;&quot;&gt;&lt;font style=&quot;font-size: 15px;&quot;&gt;+id_theloai&lt;br&gt;&lt;/font&gt;&lt;/p&gt;&lt;p style=&quot;margin: 0px 0px 0px 4px; font-size: 15px;&quot;&gt;&lt;font style=&quot;font-size: 15px;&quot;&gt;+tentheloai&lt;/font&gt;&lt;/p&gt;&lt;hr size=&quot;1&quot; style=&quot;border-style: solid; font-size: 15px;&quot;&gt;&lt;p style=&quot;margin: 0px 0px 0px 4px; font-size: 15px;&quot;&gt;&lt;font style=&quot;font-size: 15px;&quot;&gt;+&lt;/font&gt;&lt;span style=&quot;background-color: rgb(255, 255, 255); text-align: center; text-wrap-mode: nowrap;&quot;&gt;get the loai()&lt;/span&gt;&lt;/p&gt;&lt;p style=&quot;margin: 0px 0px 0px 4px; font-size: 15px;&quot;&gt;&lt;span style=&quot;background-color: rgb(255, 255, 255); text-align: center; text-wrap-mode: nowrap;&quot;&gt;+them()&lt;/span&gt;&lt;/p&gt;&lt;p style=&quot;margin: 0px 0px 0px 4px; font-size: 15px;&quot;&gt;+setid_theloai&lt;br&gt;&lt;/p&gt;&lt;p style=&quot;margin: 0px 0px 0px 4px; font-size: 15px;&quot;&gt;+settentheloai&lt;/p&gt;&lt;p style=&quot;margin: 0px 0px 0px 4px; font-size: 15px;&quot;&gt;+getid_theloai&lt;br&gt;&lt;/p&gt;&lt;p style=&quot;margin: 0px 0px 0px 4px; font-size: 15px;&quot;&gt;+tgetentheloai&lt;/p&gt;" style="verticalAlign=top;align=left;overflow=fill;html=1;whiteSpace=wrap;" vertex="1" parent="1">
          <mxGeometry x="1068" y="187" width="310" height="228" as="geometry" />
        </mxCell>
        <mxCell id="BWuAlUSk9_fTtL6U6oeN-4" value="" style="endArrow=none;html=1;rounded=0;exitX=1;exitY=0.5;exitDx=0;exitDy=0;entryX=0;entryY=0.5;entryDx=0;entryDy=0;" edge="1" parent="1" source="BWuAlUSk9_fTtL6U6oeN-1" target="BWuAlUSk9_fTtL6U6oeN-2">
          <mxGeometry width="50" height="50" relative="1" as="geometry">
            <mxPoint x="729" y="370" as="sourcePoint" />
            <mxPoint x="779" y="320" as="targetPoint" />
          </mxGeometry>
        </mxCell>
        <mxCell id="BWuAlUSk9_fTtL6U6oeN-5" value="" style="endArrow=none;html=1;rounded=0;exitX=1;exitY=0.5;exitDx=0;exitDy=0;entryX=0;entryY=0.5;entryDx=0;entryDy=0;" edge="1" parent="1" source="BWuAlUSk9_fTtL6U6oeN-2" target="BWuAlUSk9_fTtL6U6oeN-3">
          <mxGeometry width="50" height="50" relative="1" as="geometry">
            <mxPoint x="729" y="370" as="sourcePoint" />
            <mxPoint x="779" y="320" as="targetPoint" />
          </mxGeometry>
        </mxCell>
        <mxCell id="BWuAlUSk9_fTtL6U6oeN-7" value="&lt;font style=&quot;font-size: 15px;&quot;&gt;1&lt;/font&gt;" style="text;html=1;align=center;verticalAlign=middle;resizable=0;points=[];autosize=1;strokeColor=none;fillColor=none;" vertex="1" parent="1">
          <mxGeometry x="480" y="302" width="30" height="30" as="geometry" />
        </mxCell>
        <mxCell id="BWuAlUSk9_fTtL6U6oeN-8" value="&lt;font style=&quot;font-size: 15px;&quot;&gt;1&lt;/font&gt;" style="text;html=1;align=center;verticalAlign=middle;resizable=0;points=[];autosize=1;strokeColor=none;fillColor=none;" vertex="1" parent="1">
          <mxGeometry x="583" y="302" width="30" height="30" as="geometry" />
        </mxCell>
        <mxCell id="BWuAlUSk9_fTtL6U6oeN-9" value="&lt;font style=&quot;font-size: 15px;&quot;&gt;1&lt;/font&gt;" style="text;html=1;align=center;verticalAlign=middle;resizable=0;points=[];autosize=1;strokeColor=none;fillColor=none;" vertex="1" parent="1">
          <mxGeometry x="931" y="304" width="30" height="30" as="geometry" />
        </mxCell>
        <mxCell id="BWuAlUSk9_fTtL6U6oeN-11" value="" style="shape=waypoint;sketch=0;size=6;pointerEvents=1;points=[];fillColor=none;resizable=0;rotatable=0;perimeter=centerPerimeter;snapToPoint=1;fontSize=15;" vertex="1" parent="1">
          <mxGeometry x="1048" y="307" width="20" height="20" as="geometry" />
        </mxCell>
        <mxCell id="BWuAlUSk9_fTtL6U6oeN-12" value="&lt;p style=&quot;margin: 4px 0px 0px; text-align: center; font-size: 15px;&quot;&gt;&lt;font style=&quot;font-size: 15px;&quot;&gt;&lt;i style=&quot;&quot;&gt;&amp;lt;&amp;lt;boundary&amp;gt;&amp;gt;&lt;/i&gt;&lt;br&gt;&lt;b style=&quot;&quot;&gt;QuanLyTheLoaiUI&lt;/b&gt;&lt;/font&gt;&lt;/p&gt;&lt;hr size=&quot;1&quot; style=&quot;border-style: solid; font-size: 15px;&quot;&gt;&lt;p style=&quot;margin: 0px 0px 0px 4px; font-size: 15px;&quot;&gt;&lt;font style=&quot;font-size: 15px;&quot;&gt;&lt;br&gt;&lt;/font&gt;&lt;/p&gt;&lt;hr size=&quot;1&quot; style=&quot;border-style: solid; font-size: 15px;&quot;&gt;&lt;p style=&quot;margin: 0px 0px 0px 4px; font-size: 15px;&quot;&gt;&lt;font style=&quot;font-size: 15px;&quot;&gt;+&lt;span style=&quot;text-align: center; text-wrap-mode: nowrap; background-color: rgb(255, 255, 255);&quot;&gt;click vao &quot;Quan ly the loai&quot;()&lt;/span&gt;&lt;/font&gt;&lt;/p&gt;&lt;p style=&quot;margin: 0px 0px 0px 4px; font-size: 15px;&quot;&gt;&lt;font style=&quot;font-size: 15px;&quot;&gt;&lt;span style=&quot;text-align: center; text-wrap-mode: nowrap; background-color: rgb(255, 255, 255);&quot;&gt;+hien thi danh sach the loai()&lt;/span&gt;&lt;/font&gt;&lt;/p&gt;&lt;p style=&quot;margin: 0px 0px 0px 4px; font-size: 15px;&quot;&gt;&lt;font style=&quot;font-size: 15px;&quot;&gt;&lt;span style=&quot;text-align: center; text-wrap-mode: nowrap; background-color: rgb(255, 255, 255);&quot;&gt;+click &quot;Sua&quot;()&lt;/span&gt;&lt;/font&gt;&lt;/p&gt;&lt;p style=&quot;margin: 0px 0px 0px 4px; font-size: 15px;&quot;&gt;&lt;font style=&quot;font-size: 15px;&quot;&gt;&lt;span style=&quot;text-align: center; text-wrap-mode: nowrap; background-color: rgb(255, 255, 255);&quot;&gt;+chinh sua the loai()&lt;/span&gt;&lt;/font&gt;&lt;/p&gt;" style="verticalAlign=top;align=left;overflow=fill;html=1;whiteSpace=wrap;" vertex="1" parent="1">
          <mxGeometry x="162" y="673" width="310" height="190" as="geometry" />
        </mxCell>
        <mxCell id="BWuAlUSk9_fTtL6U6oeN-13" value="&lt;p style=&quot;margin: 4px 0px 0px; text-align: center; font-size: 15px;&quot;&gt;&lt;font style=&quot;font-size: 15px;&quot;&gt;&lt;i style=&quot;&quot;&gt;&amp;lt;&amp;lt;control&amp;gt;&amp;gt;&lt;/i&gt;&lt;br&gt;&lt;b style=&quot;&quot;&gt;QuanLyTheLoaiController&lt;/b&gt;&lt;/font&gt;&lt;/p&gt;&lt;hr size=&quot;1&quot; style=&quot;border-style: solid; font-size: 15px;&quot;&gt;&lt;p style=&quot;margin: 0px 0px 0px 4px; font-size: 15px;&quot;&gt;&lt;font style=&quot;font-size: 15px;&quot;&gt;&lt;br&gt;&lt;/font&gt;&lt;/p&gt;&lt;hr size=&quot;1&quot; style=&quot;border-style: solid; font-size: 15px;&quot;&gt;&lt;p style=&quot;margin: 0px 0px 0px 4px; font-size: 15px;&quot;&gt;&lt;font style=&quot;font-size: 15px;&quot;&gt;+&lt;/font&gt;&lt;span style=&quot;background-color: rgb(255, 255, 255); text-align: center; text-wrap-mode: nowrap;&quot;&gt;get danh sach the loai()&lt;/span&gt;&lt;/p&gt;&lt;p style=&quot;margin: 0px 0px 0px 4px; font-size: 15px;&quot;&gt;&lt;span style=&quot;background-color: rgb(255, 255, 255); text-align: center; text-wrap-mode: nowrap;&quot;&gt;+cap nhat the loai()&lt;/span&gt;&lt;/p&gt;" style="verticalAlign=top;align=left;overflow=fill;html=1;whiteSpace=wrap;" vertex="1" parent="1">
          <mxGeometry x="611" y="691" width="310" height="150" as="geometry" />
        </mxCell>
        <mxCell id="BWuAlUSk9_fTtL6U6oeN-14" value="&lt;p style=&quot;margin: 4px 0px 0px; text-align: center; font-size: 15px;&quot;&gt;&lt;font style=&quot;font-size: 15px;&quot;&gt;&lt;i style=&quot;&quot;&gt;&amp;lt;&amp;lt;entity&amp;gt;&amp;gt;&lt;/i&gt;&lt;br&gt;&lt;b&gt;TheLoai&lt;/b&gt;&lt;/font&gt;&lt;/p&gt;&lt;hr size=&quot;1&quot; style=&quot;border-style: solid; font-size: 15px;&quot;&gt;&lt;p style=&quot;margin: 0px 0px 0px 4px; font-size: 15px;&quot;&gt;&lt;font style=&quot;font-size: 15px;&quot;&gt;+id_theloai&lt;br&gt;&lt;/font&gt;&lt;/p&gt;&lt;p style=&quot;margin: 0px 0px 0px 4px; font-size: 15px;&quot;&gt;&lt;font style=&quot;font-size: 15px;&quot;&gt;+tentheloai&lt;/font&gt;&lt;/p&gt;&lt;hr size=&quot;1&quot; style=&quot;border-style: solid; font-size: 15px;&quot;&gt;&lt;p style=&quot;margin: 0px 0px 0px 4px; font-size: 15px;&quot;&gt;&lt;font style=&quot;font-size: 15px;&quot;&gt;+&lt;/font&gt;&lt;span style=&quot;background-color: rgb(255, 255, 255); text-align: center; text-wrap-mode: nowrap;&quot;&gt;get the loai()&lt;/span&gt;&lt;/p&gt;&lt;p style=&quot;margin: 0px 0px 0px 4px; font-size: 15px;&quot;&gt;&lt;span style=&quot;background-color: rgb(255, 255, 255); text-align: center; text-wrap-mode: nowrap;&quot;&gt;+update()&lt;/span&gt;&lt;/p&gt;&lt;p style=&quot;margin: 0px 0px 0px 4px; font-size: 15px;&quot;&gt;+setid_theloai&lt;br&gt;&lt;/p&gt;&lt;p style=&quot;margin: 0px 0px 0px 4px; font-size: 15px;&quot;&gt;+settentheloai&lt;/p&gt;&lt;p style=&quot;margin: 0px 0px 0px 4px; font-size: 15px;&quot;&gt;+getid_theloai&lt;br&gt;&lt;/p&gt;&lt;p style=&quot;margin: 0px 0px 0px 4px; font-size: 15px;&quot;&gt;+tgetentheloai&lt;/p&gt;" style="verticalAlign=top;align=left;overflow=fill;html=1;whiteSpace=wrap;" vertex="1" parent="1">
          <mxGeometry x="1060" y="660" width="310" height="228" as="geometry" />
        </mxCell>
        <mxCell id="BWuAlUSk9_fTtL6U6oeN-15" value="" style="endArrow=none;html=1;rounded=0;exitX=1;exitY=0.5;exitDx=0;exitDy=0;entryX=0;entryY=0.5;entryDx=0;entryDy=0;" edge="1" parent="1" source="BWuAlUSk9_fTtL6U6oeN-12" target="BWuAlUSk9_fTtL6U6oeN-13">
          <mxGeometry width="50" height="50" relative="1" as="geometry">
            <mxPoint x="721" y="843" as="sourcePoint" />
            <mxPoint x="771" y="793" as="targetPoint" />
          </mxGeometry>
        </mxCell>
        <mxCell id="BWuAlUSk9_fTtL6U6oeN-16" value="" style="endArrow=none;html=1;rounded=0;exitX=1;exitY=0.5;exitDx=0;exitDy=0;entryX=0;entryY=0.5;entryDx=0;entryDy=0;" edge="1" parent="1" source="BWuAlUSk9_fTtL6U6oeN-13" target="BWuAlUSk9_fTtL6U6oeN-14">
          <mxGeometry width="50" height="50" relative="1" as="geometry">
            <mxPoint x="721" y="843" as="sourcePoint" />
            <mxPoint x="771" y="793" as="targetPoint" />
          </mxGeometry>
        </mxCell>
        <mxCell id="BWuAlUSk9_fTtL6U6oeN-17" value="&lt;font style=&quot;font-size: 15px;&quot;&gt;1&lt;/font&gt;" style="text;html=1;align=center;verticalAlign=middle;resizable=0;points=[];autosize=1;strokeColor=none;fillColor=none;" vertex="1" parent="1">
          <mxGeometry x="472" y="775" width="30" height="30" as="geometry" />
        </mxCell>
        <mxCell id="BWuAlUSk9_fTtL6U6oeN-18" value="&lt;font style=&quot;font-size: 15px;&quot;&gt;1&lt;/font&gt;" style="text;html=1;align=center;verticalAlign=middle;resizable=0;points=[];autosize=1;strokeColor=none;fillColor=none;" vertex="1" parent="1">
          <mxGeometry x="575" y="775" width="30" height="30" as="geometry" />
        </mxCell>
        <mxCell id="BWuAlUSk9_fTtL6U6oeN-19" value="&lt;font style=&quot;font-size: 15px;&quot;&gt;1&lt;/font&gt;" style="text;html=1;align=center;verticalAlign=middle;resizable=0;points=[];autosize=1;strokeColor=none;fillColor=none;" vertex="1" parent="1">
          <mxGeometry x="923" y="777" width="30" height="30" as="geometry" />
        </mxCell>
        <mxCell id="BWuAlUSk9_fTtL6U6oeN-20" value="" style="shape=waypoint;sketch=0;size=6;pointerEvents=1;points=[];fillColor=none;resizable=0;rotatable=0;perimeter=centerPerimeter;snapToPoint=1;fontSize=15;" vertex="1" parent="1">
          <mxGeometry x="1040" y="780" width="20" height="20" as="geometry" />
        </mxCell>
        <mxCell id="BWuAlUSk9_fTtL6U6oeN-21" value="&lt;p style=&quot;margin: 4px 0px 0px; text-align: center; font-size: 15px;&quot;&gt;&lt;font style=&quot;font-size: 15px;&quot;&gt;&lt;i style=&quot;&quot;&gt;&amp;lt;&amp;lt;boundary&amp;gt;&amp;gt;&lt;/i&gt;&lt;br&gt;&lt;b style=&quot;&quot;&gt;QuanLyTheLoaiUI&lt;/b&gt;&lt;/font&gt;&lt;/p&gt;&lt;hr size=&quot;1&quot; style=&quot;border-style: solid; font-size: 15px;&quot;&gt;&lt;p style=&quot;margin: 0px 0px 0px 4px; font-size: 15px;&quot;&gt;&lt;font style=&quot;font-size: 15px;&quot;&gt;&lt;br&gt;&lt;/font&gt;&lt;/p&gt;&lt;hr size=&quot;1&quot; style=&quot;border-style: solid; font-size: 15px;&quot;&gt;&lt;p style=&quot;margin: 0px 0px 0px 4px; font-size: 15px;&quot;&gt;&lt;font style=&quot;font-size: 15px;&quot;&gt;+&lt;span style=&quot;text-align: center; text-wrap-mode: nowrap; background-color: rgb(255, 255, 255);&quot;&gt;click vao &quot;Quan ly the loai&quot;()&lt;/span&gt;&lt;/font&gt;&lt;/p&gt;&lt;p style=&quot;margin: 0px 0px 0px 4px; font-size: 15px;&quot;&gt;&lt;font style=&quot;font-size: 15px;&quot;&gt;&lt;span style=&quot;text-align: center; text-wrap-mode: nowrap; background-color: rgb(255, 255, 255);&quot;&gt;+hien thi danh sach the loai()&lt;/span&gt;&lt;/font&gt;&lt;/p&gt;&lt;p style=&quot;margin: 0px 0px 0px 4px; font-size: 15px;&quot;&gt;&lt;font style=&quot;font-size: 15px;&quot;&gt;&lt;span style=&quot;text-align: center; text-wrap-mode: nowrap; background-color: rgb(255, 255, 255);&quot;&gt;+click &quot;Xoa&quot;()&lt;/span&gt;&lt;/font&gt;&lt;/p&gt;&lt;p style=&quot;margin: 0px 0px 0px 4px; font-size: 15px;&quot;&gt;&lt;font style=&quot;font-size: 15px;&quot;&gt;&lt;span style=&quot;text-align: center; text-wrap-mode: nowrap; background-color: rgb(255, 255, 255);&quot;&gt;+chon &quot;Xac nhan&quot; de xoa()&lt;/span&gt;&lt;/font&gt;&lt;/p&gt;" style="verticalAlign=top;align=left;overflow=fill;html=1;whiteSpace=wrap;" vertex="1" parent="1">
          <mxGeometry x="170" y="1066" width="310" height="190" as="geometry" />
        </mxCell>
        <mxCell id="BWuAlUSk9_fTtL6U6oeN-22" value="&lt;p style=&quot;margin: 4px 0px 0px; text-align: center; font-size: 15px;&quot;&gt;&lt;font style=&quot;font-size: 15px;&quot;&gt;&lt;i style=&quot;&quot;&gt;&amp;lt;&amp;lt;control&amp;gt;&amp;gt;&lt;/i&gt;&lt;br&gt;&lt;b style=&quot;&quot;&gt;QuanLyTheLoaiController&lt;/b&gt;&lt;/font&gt;&lt;/p&gt;&lt;hr size=&quot;1&quot; style=&quot;border-style: solid; font-size: 15px;&quot;&gt;&lt;p style=&quot;margin: 0px 0px 0px 4px; font-size: 15px;&quot;&gt;&lt;font style=&quot;font-size: 15px;&quot;&gt;&lt;br&gt;&lt;/font&gt;&lt;/p&gt;&lt;hr size=&quot;1&quot; style=&quot;border-style: solid; font-size: 15px;&quot;&gt;&lt;p style=&quot;margin: 0px 0px 0px 4px; font-size: 15px;&quot;&gt;&lt;font style=&quot;font-size: 15px;&quot;&gt;+&lt;/font&gt;&lt;span style=&quot;background-color: rgb(255, 255, 255); text-align: center; text-wrap-mode: nowrap;&quot;&gt;get danh sach the loai()&lt;/span&gt;&lt;/p&gt;&lt;p style=&quot;margin: 0px 0px 0px 4px; font-size: 15px;&quot;&gt;&lt;span style=&quot;background-color: rgb(255, 255, 255); text-align: center; text-wrap-mode: nowrap;&quot;&gt;+xoa the loai()&lt;/span&gt;&lt;/p&gt;" style="verticalAlign=top;align=left;overflow=fill;html=1;whiteSpace=wrap;" vertex="1" parent="1">
          <mxGeometry x="619" y="1084" width="310" height="150" as="geometry" />
        </mxCell>
        <mxCell id="BWuAlUSk9_fTtL6U6oeN-23" value="&lt;p style=&quot;margin: 4px 0px 0px; text-align: center; font-size: 15px;&quot;&gt;&lt;font style=&quot;font-size: 15px;&quot;&gt;&lt;i style=&quot;&quot;&gt;&amp;lt;&amp;lt;entity&amp;gt;&amp;gt;&lt;/i&gt;&lt;br&gt;&lt;b&gt;TheLoai&lt;/b&gt;&lt;/font&gt;&lt;/p&gt;&lt;hr size=&quot;1&quot; style=&quot;border-style: solid; font-size: 15px;&quot;&gt;&lt;p style=&quot;margin: 0px 0px 0px 4px; font-size: 15px;&quot;&gt;&lt;font style=&quot;font-size: 15px;&quot;&gt;+id_theloai&lt;br&gt;&lt;/font&gt;&lt;/p&gt;&lt;p style=&quot;margin: 0px 0px 0px 4px; font-size: 15px;&quot;&gt;&lt;font style=&quot;font-size: 15px;&quot;&gt;+tentheloai&lt;/font&gt;&lt;/p&gt;&lt;hr size=&quot;1&quot; style=&quot;border-style: solid; font-size: 15px;&quot;&gt;&lt;p style=&quot;margin: 0px 0px 0px 4px; font-size: 15px;&quot;&gt;&lt;font style=&quot;font-size: 15px;&quot;&gt;+&lt;/font&gt;&lt;span style=&quot;background-color: rgb(255, 255, 255); text-align: center; text-wrap-mode: nowrap;&quot;&gt;get the loai()&lt;/span&gt;&lt;/p&gt;&lt;p style=&quot;margin: 0px 0px 0px 4px; font-size: 15px;&quot;&gt;&lt;span style=&quot;background-color: rgb(255, 255, 255); text-align: center; text-wrap-mode: nowrap;&quot;&gt;+remove()&lt;/span&gt;&lt;/p&gt;&lt;p style=&quot;margin: 0px 0px 0px 4px; font-size: 15px;&quot;&gt;+setid_theloai&lt;br&gt;&lt;/p&gt;&lt;p style=&quot;margin: 0px 0px 0px 4px; font-size: 15px;&quot;&gt;+settentheloai&lt;/p&gt;&lt;p style=&quot;margin: 0px 0px 0px 4px; font-size: 15px;&quot;&gt;+getid_theloai&lt;br&gt;&lt;/p&gt;&lt;p style=&quot;margin: 0px 0px 0px 4px; font-size: 15px;&quot;&gt;+tgetentheloai&lt;/p&gt;" style="verticalAlign=top;align=left;overflow=fill;html=1;whiteSpace=wrap;" vertex="1" parent="1">
          <mxGeometry x="1068" y="1053" width="310" height="228" as="geometry" />
        </mxCell>
        <mxCell id="BWuAlUSk9_fTtL6U6oeN-24" value="" style="endArrow=none;html=1;rounded=0;exitX=1;exitY=0.5;exitDx=0;exitDy=0;entryX=0;entryY=0.5;entryDx=0;entryDy=0;" edge="1" parent="1" source="BWuAlUSk9_fTtL6U6oeN-21" target="BWuAlUSk9_fTtL6U6oeN-22">
          <mxGeometry width="50" height="50" relative="1" as="geometry">
            <mxPoint x="729" y="1236" as="sourcePoint" />
            <mxPoint x="779" y="1186" as="targetPoint" />
          </mxGeometry>
        </mxCell>
        <mxCell id="BWuAlUSk9_fTtL6U6oeN-25" value="" style="endArrow=none;html=1;rounded=0;exitX=1;exitY=0.5;exitDx=0;exitDy=0;entryX=0;entryY=0.5;entryDx=0;entryDy=0;" edge="1" parent="1" source="BWuAlUSk9_fTtL6U6oeN-22" target="BWuAlUSk9_fTtL6U6oeN-23">
          <mxGeometry width="50" height="50" relative="1" as="geometry">
            <mxPoint x="729" y="1236" as="sourcePoint" />
            <mxPoint x="779" y="1186" as="targetPoint" />
          </mxGeometry>
        </mxCell>
        <mxCell id="BWuAlUSk9_fTtL6U6oeN-26" value="&lt;font style=&quot;font-size: 15px;&quot;&gt;1&lt;/font&gt;" style="text;html=1;align=center;verticalAlign=middle;resizable=0;points=[];autosize=1;strokeColor=none;fillColor=none;" vertex="1" parent="1">
          <mxGeometry x="480" y="1168" width="30" height="30" as="geometry" />
        </mxCell>
        <mxCell id="BWuAlUSk9_fTtL6U6oeN-27" value="&lt;font style=&quot;font-size: 15px;&quot;&gt;1&lt;/font&gt;" style="text;html=1;align=center;verticalAlign=middle;resizable=0;points=[];autosize=1;strokeColor=none;fillColor=none;" vertex="1" parent="1">
          <mxGeometry x="583" y="1168" width="30" height="30" as="geometry" />
        </mxCell>
        <mxCell id="BWuAlUSk9_fTtL6U6oeN-28" value="&lt;font style=&quot;font-size: 15px;&quot;&gt;1&lt;/font&gt;" style="text;html=1;align=center;verticalAlign=middle;resizable=0;points=[];autosize=1;strokeColor=none;fillColor=none;" vertex="1" parent="1">
          <mxGeometry x="931" y="1170" width="30" height="30" as="geometry" />
        </mxCell>
        <mxCell id="BWuAlUSk9_fTtL6U6oeN-29" value="" style="shape=waypoint;sketch=0;size=6;pointerEvents=1;points=[];fillColor=none;resizable=0;rotatable=0;perimeter=centerPerimeter;snapToPoint=1;fontSize=15;" vertex="1" parent="1">
          <mxGeometry x="1048" y="1173" width="20" height="20" as="geometry" />
        </mxCell>
        <mxCell id="BWuAlUSk9_fTtL6U6oeN-30" value="&lt;p style=&quot;margin: 4px 0px 0px; text-align: center; font-size: 15px;&quot;&gt;&lt;font style=&quot;font-size: 15px;&quot;&gt;&lt;i style=&quot;&quot;&gt;&amp;lt;&amp;lt;boundary&amp;gt;&amp;gt;&lt;/i&gt;&lt;br&gt;&lt;b style=&quot;&quot;&gt;TaoBaiVietUI&lt;/b&gt;&lt;/font&gt;&lt;/p&gt;&lt;hr size=&quot;1&quot; style=&quot;border-style: solid; font-size: 15px;&quot;&gt;&lt;p style=&quot;margin: 0px 0px 0px 4px; font-size: 15px;&quot;&gt;&lt;font style=&quot;font-size: 15px;&quot;&gt;&lt;br&gt;&lt;/font&gt;&lt;/p&gt;&lt;hr size=&quot;1&quot; style=&quot;border-style: solid; font-size: 15px;&quot;&gt;&lt;p style=&quot;margin: 0px 0px 0px 4px; font-size: 15px;&quot;&gt;&lt;font style=&quot;font-size: 15px;&quot;&gt;+&lt;span style=&quot;text-align: center; text-wrap-mode: nowrap; background-color: rgb(255, 255, 255);&quot;&gt;click vao &quot;Them bai viet moi&quot;()&lt;br&gt;&lt;/span&gt;&lt;/font&gt;&lt;/p&gt;&lt;p style=&quot;margin: 0px 0px 0px 4px; font-size: 15px;&quot;&gt;&lt;font style=&quot;font-size: 15px;&quot;&gt;&lt;span style=&quot;text-align: center; text-wrap-mode: nowrap; background-color: rgb(255, 255, 255);&quot;&gt;+nhap thong tin()&lt;/span&gt;&lt;/font&gt;&lt;/p&gt;&lt;p style=&quot;margin: 0px 0px 0px 4px; font-size: 15px;&quot;&gt;&lt;font style=&quot;font-size: 15px;&quot;&gt;&lt;span style=&quot;text-align: center; text-wrap-mode: nowrap; background-color: rgb(255, 255, 255);&quot;&gt;+click &quot;Them bai viet&quot;()&lt;/span&gt;&lt;/font&gt;&lt;/p&gt;" style="verticalAlign=top;align=left;overflow=fill;html=1;whiteSpace=wrap;" vertex="1" parent="1">
          <mxGeometry x="164" y="1441" width="310" height="172" as="geometry" />
        </mxCell>
        <mxCell id="BWuAlUSk9_fTtL6U6oeN-31" value="&lt;p style=&quot;margin: 4px 0px 0px; text-align: center; font-size: 15px;&quot;&gt;&lt;font style=&quot;font-size: 15px;&quot;&gt;&lt;i style=&quot;&quot;&gt;&amp;lt;&amp;lt;control&amp;gt;&amp;gt;&lt;/i&gt;&lt;br&gt;&lt;b style=&quot;&quot;&gt;TaoBaiVietController&lt;/b&gt;&lt;/font&gt;&lt;/p&gt;&lt;hr size=&quot;1&quot; style=&quot;border-style: solid; font-size: 15px;&quot;&gt;&lt;p style=&quot;margin: 0px 0px 0px 4px; font-size: 15px;&quot;&gt;&lt;font style=&quot;font-size: 15px;&quot;&gt;&lt;br&gt;&lt;/font&gt;&lt;/p&gt;&lt;hr size=&quot;1&quot; style=&quot;border-style: solid; font-size: 15px;&quot;&gt;&lt;p style=&quot;margin: 0px 0px 0px 4px; font-size: 15px;&quot;&gt;&lt;font style=&quot;font-size: 15px;&quot;&gt;+update thong tin()&lt;/font&gt;&lt;/p&gt;" style="verticalAlign=top;align=left;overflow=fill;html=1;whiteSpace=wrap;" vertex="1" parent="1">
          <mxGeometry x="621" y="1461.5" width="310" height="131" as="geometry" />
        </mxCell>
        <mxCell id="BWuAlUSk9_fTtL6U6oeN-32" value="&lt;p style=&quot;margin: 4px 0px 0px; text-align: center; font-size: 15px;&quot;&gt;&lt;font style=&quot;font-size: 15px;&quot;&gt;&lt;i style=&quot;&quot;&gt;&amp;lt;&amp;lt;entity&amp;gt;&amp;gt;&lt;/i&gt;&lt;br&gt;&lt;b&gt;TheLoai&lt;/b&gt;&lt;/font&gt;&lt;/p&gt;&lt;hr size=&quot;1&quot; style=&quot;border-style: solid; font-size: 15px;&quot;&gt;&lt;p style=&quot;margin: 0px 0px 0px 4px; font-size: 15px;&quot;&gt;&lt;font style=&quot;font-size: 15px;&quot;&gt;+id_theloai&lt;br&gt;&lt;/font&gt;&lt;/p&gt;&lt;p style=&quot;margin: 0px 0px 0px 4px; font-size: 15px;&quot;&gt;&lt;font style=&quot;font-size: 15px;&quot;&gt;+tentheloai&lt;/font&gt;&lt;/p&gt;&lt;hr size=&quot;1&quot; style=&quot;border-style: solid; font-size: 15px;&quot;&gt;&lt;p style=&quot;margin: 0px 0px 0px 4px; font-size: 15px;&quot;&gt;&lt;span style=&quot;background-color: initial;&quot;&gt;+setid_theloai&lt;/span&gt;&lt;/p&gt;&lt;p style=&quot;margin: 0px 0px 0px 4px; font-size: 15px;&quot;&gt;+settentheloai&lt;/p&gt;&lt;p style=&quot;margin: 0px 0px 0px 4px; font-size: 15px;&quot;&gt;+getid_theloai&lt;br&gt;&lt;/p&gt;&lt;p style=&quot;margin: 0px 0px 0px 4px; font-size: 15px;&quot;&gt;+tgetentheloai&lt;/p&gt;" style="verticalAlign=top;align=left;overflow=fill;html=1;whiteSpace=wrap;" vertex="1" parent="1">
          <mxGeometry x="1071" y="1423" width="310" height="200" as="geometry" />
        </mxCell>
        <mxCell id="BWuAlUSk9_fTtL6U6oeN-33" value="" style="endArrow=none;html=1;rounded=0;exitX=1;exitY=0.5;exitDx=0;exitDy=0;entryX=0;entryY=0.5;entryDx=0;entryDy=0;" edge="1" parent="1" source="BWuAlUSk9_fTtL6U6oeN-30" target="BWuAlUSk9_fTtL6U6oeN-31">
          <mxGeometry width="50" height="50" relative="1" as="geometry">
            <mxPoint x="732" y="1593" as="sourcePoint" />
            <mxPoint x="782" y="1543" as="targetPoint" />
          </mxGeometry>
        </mxCell>
        <mxCell id="BWuAlUSk9_fTtL6U6oeN-34" value="" style="endArrow=none;html=1;rounded=0;exitX=1;exitY=0.5;exitDx=0;exitDy=0;entryX=0;entryY=0.5;entryDx=0;entryDy=0;" edge="1" parent="1" source="BWuAlUSk9_fTtL6U6oeN-31" target="BWuAlUSk9_fTtL6U6oeN-32">
          <mxGeometry width="50" height="50" relative="1" as="geometry">
            <mxPoint x="732" y="1593" as="sourcePoint" />
            <mxPoint x="782" y="1543" as="targetPoint" />
          </mxGeometry>
        </mxCell>
        <mxCell id="BWuAlUSk9_fTtL6U6oeN-35" value="&lt;font style=&quot;font-size: 15px;&quot;&gt;1&lt;/font&gt;" style="text;html=1;align=center;verticalAlign=middle;resizable=0;points=[];autosize=1;strokeColor=none;fillColor=none;" vertex="1" parent="1">
          <mxGeometry x="483" y="1525" width="30" height="30" as="geometry" />
        </mxCell>
        <mxCell id="BWuAlUSk9_fTtL6U6oeN-36" value="&lt;font style=&quot;font-size: 15px;&quot;&gt;1&lt;/font&gt;" style="text;html=1;align=center;verticalAlign=middle;resizable=0;points=[];autosize=1;strokeColor=none;fillColor=none;" vertex="1" parent="1">
          <mxGeometry x="586" y="1525" width="30" height="30" as="geometry" />
        </mxCell>
        <mxCell id="BWuAlUSk9_fTtL6U6oeN-37" value="&lt;font style=&quot;font-size: 15px;&quot;&gt;1&lt;/font&gt;" style="text;html=1;align=center;verticalAlign=middle;resizable=0;points=[];autosize=1;strokeColor=none;fillColor=none;" vertex="1" parent="1">
          <mxGeometry x="934" y="1527" width="30" height="30" as="geometry" />
        </mxCell>
        <mxCell id="BWuAlUSk9_fTtL6U6oeN-38" value="" style="shape=waypoint;sketch=0;size=6;pointerEvents=1;points=[];fillColor=none;resizable=0;rotatable=0;perimeter=centerPerimeter;snapToPoint=1;fontSize=15;" vertex="1" parent="1">
          <mxGeometry x="1051" y="1530" width="20" height="20" as="geometry" />
        </mxCell>
        <mxCell id="BWuAlUSk9_fTtL6U6oeN-40" value="&lt;p style=&quot;margin: 4px 0px 0px; text-align: center; font-size: 15px;&quot;&gt;&lt;font style=&quot;font-size: 15px;&quot;&gt;&lt;i style=&quot;&quot;&gt;&amp;lt;&amp;lt;entity&amp;gt;&amp;gt;&lt;/i&gt;&lt;br&gt;&lt;b&gt;BaiViet&lt;/b&gt;&lt;/font&gt;&lt;/p&gt;&lt;hr size=&quot;1&quot; style=&quot;border-style: solid; font-size: 15px;&quot;&gt;&lt;p style=&quot;margin: 0px 0px 0px 4px; font-size: 15px;&quot;&gt;&lt;font style=&quot;font-size: 15px;&quot;&gt;+id_baiviet&lt;br&gt;&lt;/font&gt;&lt;/p&gt;&lt;p style=&quot;margin: 0px 0px 0px 4px; font-size: 15px;&quot;&gt;&lt;font style=&quot;font-size: 15px;&quot;&gt;+tenbaiviet&lt;/font&gt;&lt;/p&gt;&lt;p style=&quot;margin: 0px 0px 0px 4px; font-size: 15px;&quot;&gt;&lt;font style=&quot;font-size: 15px;&quot;&gt;+hinhanh&lt;/font&gt;&lt;/p&gt;&lt;p style=&quot;margin: 0px 0px 0px 4px; font-size: 15px;&quot;&gt;&lt;font style=&quot;font-size: 15px;&quot;&gt;+tomtat&lt;/font&gt;&lt;/p&gt;&lt;p style=&quot;margin: 0px 0px 0px 4px; font-size: 15px;&quot;&gt;&lt;font style=&quot;font-size: 15px;&quot;&gt;+noidung&lt;/font&gt;&lt;/p&gt;&lt;p style=&quot;margin: 0px 0px 0px 4px; font-size: 15px;&quot;&gt;&lt;font style=&quot;font-size: 15px;&quot;&gt;+tinhtrang&lt;/font&gt;&lt;/p&gt;&lt;p style=&quot;margin: 0px 0px 0px 4px; font-size: 15px;&quot;&gt;&lt;font style=&quot;font-size: 15px;&quot;&gt;+id_theloai&lt;/font&gt;&lt;/p&gt;&lt;hr size=&quot;1&quot; style=&quot;border-style: solid; font-size: 15px;&quot;&gt;&lt;p style=&quot;margin: 0px 0px 0px 4px; font-size: 15px;&quot;&gt;&lt;span style=&quot;background-color: initial;&quot;&gt;+set&lt;/span&gt;&lt;span style=&quot;background-color: initial;&quot;&gt;d_baiviet&lt;/span&gt;&lt;/p&gt;&lt;p style=&quot;margin: 0px 0px 0px 4px; font-size: 15px;&quot;&gt;+settenbaiviet&lt;/p&gt;&lt;p style=&quot;margin: 0px 0px 0px 4px; font-size: 15px;&quot;&gt;+sethinhanh&lt;/p&gt;&lt;p style=&quot;margin: 0px 0px 0px 4px; font-size: 15px;&quot;&gt;+settomtat&lt;/p&gt;&lt;p style=&quot;margin: 0px 0px 0px 4px; font-size: 15px;&quot;&gt;+setnoidung&lt;/p&gt;&lt;p style=&quot;margin: 0px 0px 0px 4px; font-size: 15px;&quot;&gt;+settinhtrang&lt;/p&gt;&lt;p style=&quot;margin: 0px 0px 0px 4px; font-size: 15px;&quot;&gt;+isetd_theloai&lt;/p&gt;&lt;p style=&quot;margin: 0px 0px 0px 4px; font-size: 15px;&quot;&gt;+get&lt;span style=&quot;background-color: initial;&quot;&gt;d_baiviet&lt;/span&gt;&lt;/p&gt;&lt;p style=&quot;margin: 0px 0px 0px 4px; font-size: 15px;&quot;&gt;+gettenbaiviet&lt;/p&gt;&lt;p style=&quot;margin: 0px 0px 0px 4px; font-size: 15px;&quot;&gt;+gethinhanh&lt;/p&gt;&lt;p style=&quot;margin: 0px 0px 0px 4px; font-size: 15px;&quot;&gt;+gettomtat&lt;/p&gt;&lt;p style=&quot;margin: 0px 0px 0px 4px; font-size: 15px;&quot;&gt;+getnoidung&lt;/p&gt;&lt;p style=&quot;margin: 0px 0px 0px 4px; font-size: 15px;&quot;&gt;+gettinhtrang&lt;/p&gt;&lt;p style=&quot;margin: 0px 0px 0px 4px; font-size: 15px;&quot;&gt;+getid_theloai&lt;/p&gt;" style="verticalAlign=top;align=left;overflow=fill;html=1;whiteSpace=wrap;" vertex="1" parent="1">
          <mxGeometry x="810" y="1736" width="310" height="467" as="geometry" />
        </mxCell>
        <mxCell id="BWuAlUSk9_fTtL6U6oeN-41" value="" style="endArrow=none;html=1;rounded=0;exitX=0.5;exitY=1;exitDx=0;exitDy=0;entryX=0.5;entryY=0;entryDx=0;entryDy=0;" edge="1" parent="1" source="BWuAlUSk9_fTtL6U6oeN-31" target="BWuAlUSk9_fTtL6U6oeN-40">
          <mxGeometry width="50" height="50" relative="1" as="geometry">
            <mxPoint x="629" y="1918" as="sourcePoint" />
            <mxPoint x="679" y="1868" as="targetPoint" />
          </mxGeometry>
        </mxCell>
        <mxCell id="BWuAlUSk9_fTtL6U6oeN-42" value="&lt;font style=&quot;font-size: 15px;&quot;&gt;1&lt;/font&gt;" style="text;html=1;align=center;verticalAlign=middle;resizable=0;points=[];autosize=1;strokeColor=none;fillColor=none;" vertex="1" parent="1">
          <mxGeometry x="803" y="1592.5" width="30" height="30" as="geometry" />
        </mxCell>
        <mxCell id="BWuAlUSk9_fTtL6U6oeN-43" value="" style="shape=waypoint;sketch=0;size=6;pointerEvents=1;points=[];fillColor=none;resizable=0;rotatable=0;perimeter=centerPerimeter;snapToPoint=1;fontSize=15;" vertex="1" parent="1">
          <mxGeometry x="959" y="1708" width="20" height="20" as="geometry" />
        </mxCell>
      </root>
    </mxGraphModel>
  </diagram>
</mxfile>
